<svg width="310" height="459" viewBox="0 0 310 459" fill="none" xmlns="http://www.w3.org/2000/svg">
<path d="M308.752 210.814C302.679 174.396 271.024 146.645 232.888 146.645H76.9308C38.8098 146.645 7.16206 174.374 1.06653 210.77C0.362948 214.932 0 219.213 0 223.575V359.461C0 363.824 0.362948 368.097 1.06653 372.26C5.91779 401.256 26.9965 424.756 54.6522 433.103C61.7031 435.237 69.1836 436.385 76.9308 436.385H232.888C240.635 436.385 248.116 435.237 255.167 433.103C282.83 424.749 303.916 401.234 308.752 372.215C309.449 368.067 309.811 363.809 309.811 359.461V223.575C309.811 219.228 309.449 214.962 308.752 210.814ZM246.086 433.103C241.798 433.866 237.391 434.266 232.888 434.266H76.9308C72.4276 434.266 68.0208 433.866 63.7325 433.103C28.7148 426.875 2.1257 396.271 2.1257 359.461V314.356C2.1257 186.906 105.438 148.77 232.888 148.77C274.201 148.77 307.693 182.262 307.693 223.575V359.461C207.403 372.882 281.104 426.875 246.086 433.103V433.103Z" fill="#3F3D56"/>
<path d="M185.943 249.186L191.943 288.186L279.943 276.186L271.443 230.62L185.943 249.186Z" fill="#1868B2"/>
<path d="M255.008 30.3422H218.623V68.0034H255.008V30.3422Z" fill="#2F2E41"/>
<path d="M221.943 70.1864L230.943 43.1864H248.486L249.408 70.1864H221.943Z" fill="#FFB6B6"/>
<path opacity="0.1" d="M221.943 70.1864L230.943 43.1864H248.486L249.408 70.1864H221.943Z" fill="black"/>
<path d="M231.443 310.686L230.443 414.686L229.443 422.686V434.171L244.443 435.686L245.443 412.686C245.443 412.686 261.443 367.686 257.443 332.686C253.443 297.686 255.443 307.686 255.443 307.686L231.443 310.686Z" fill="#FFB6B6"/>
<path d="M240.965 318.854L204.064 416.092L202.085 423.908L197.908 434.605L183.384 430.56L190.819 408.772C190.819 408.772 192.286 361.035 208.744 329.888C225.202 298.741 219.701 307.329 219.701 307.329L240.965 318.854V318.854Z" fill="#FFB6B6"/>
<path d="M221.943 67.1864L194.943 79.1864L212.183 168.198L209.459 295.954L191.459 333.954C191.459 333.954 188.443 355.686 219.443 341.686C250.443 327.686 285.443 323.686 285.443 323.686L276.943 265.186L269.443 111.686L270.443 77.6864L248.443 63.6864L221.943 67.1864V67.1864Z" fill="#2F2E41"/>
<path d="M206.906 335.343L176.943 285.186L211.183 168.198L194.943 79.1864L223.434 66.9896C223.434 66.9896 238.183 81.352 238.183 93.1985C238.183 105.045 206.906 335.343 206.906 335.343V335.343Z" fill="#E6E6E6"/>
<path d="M271.906 325.343L244.709 91.7151C244.365 88.7651 244.869 85.7783 246.16 83.104L253.943 66.9896L284.443 75.6864L272.183 171.198L304.943 265.186L271.906 325.343H271.906Z" fill="#E6E6E6"/>
<path d="M247.443 433.686C247.443 433.686 228.443 422.686 226.443 428.686C224.443 434.686 223.443 439.686 223.443 439.686C223.443 439.686 218.443 458.686 233.443 458.686C248.443 458.686 247.443 450.045 247.443 450.045V433.686Z" fill="#2F2E41"/>
<path d="M181.317 427.606C181.317 427.606 203.017 424.271 202.697 430.588C202.378 436.904 201.49 441.926 201.49 441.926C201.49 441.926 199.236 461.443 185.264 455.986C171.291 450.529 175.366 442.843 175.366 442.843L181.317 427.606V427.606Z" fill="#2F2E41"/>
<path d="M240.884 57.8814C254.614 57.8814 265.744 46.7512 265.744 33.0215C265.744 19.2917 254.614 8.16156 240.884 8.16156C227.155 8.16156 216.024 19.2917 216.024 33.0215C216.024 46.7512 227.155 57.8814 240.884 57.8814Z" fill="#FFB6B6"/>
<path d="M260.746 10.8677C259.589 4.7383 253.297 0.592522 247.081 0.0726519C240.865 -0.447218 234.777 1.89991 229.179 4.65186C225.384 6.51734 221.648 8.61997 218.575 11.5237C215.501 14.4274 213.114 18.2206 212.563 22.4128C212.368 23.8961 212.393 25.4457 211.786 26.813C211.027 28.521 209.399 29.6809 208.417 31.2706C206.654 34.1215 207.464 38.2692 210.169 40.2481C206.769 41.6972 203.275 43.2088 200.683 45.8437C198.091 48.4787 196.594 52.5468 198.016 55.9584C198.52 57.1653 199.351 58.2218 199.781 59.4568C200.598 61.8018 199.821 64.4659 198.372 66.4826C196.923 68.4994 194.879 69.9949 192.87 71.4549C198.032 72.4667 203.301 73.255 208.54 72.783C213.779 72.311 219.037 70.475 222.831 66.8312C226.625 63.1875 228.712 57.5669 227.351 52.4859C226.308 48.5935 223.392 45.1828 223.394 41.1533C223.395 38.0558 225.137 35.2617 226.819 32.6606L237.837 15.6186C238.498 14.5968 239.195 13.5394 240.239 12.9144C242.015 11.8511 244.319 12.3187 246.191 13.2012C248.063 14.0837 249.774 15.3499 251.77 15.897C255.845 17.0138 260.571 14.4492 261.856 10.4244" fill="#2F2E41"/>
<path d="M246.061 61.4252C243.989 63.4313 241.004 64.0775 238.237 64.8904C235.471 65.7033 232.528 66.9818 231.282 69.5828C230.061 72.1333 230.948 75.3708 232.969 77.3479C234.991 79.325 237.927 80.1579 240.755 80.1187C243.582 80.0794 246.338 79.2507 248.997 78.2886C256.267 75.6577 263.153 71.9671 269.37 67.3696C265.343 66.2555 262.709 61.5534 263.861 57.5375C264.799 54.2707 267.666 51.9922 269.617 49.2094C272.977 44.4179 273.537 38.1019 272.424 32.3566C271.312 26.6114 268.693 21.2857 266.101 16.039C265.281 14.3805 264.443 12.6939 263.164 11.3566C261.886 10.0193 260.077 9.06121 258.237 9.25281C255.183 9.57076 253.234 12.9227 253.213 15.9925C253.192 19.0623 254.539 21.9474 255.56 24.8424C256.613 27.825 257.344 30.9865 257.062 34.1366C256.825 36.7765 255.865 39.348 254.314 41.4969C253.116 43.1565 251.589 44.5492 250.286 46.1279C249.279 47.3484 248.386 48.731 248.121 50.2911C247.639 53.1302 249.305 56.003 248.848 58.8463C248.366 61.8519 245.203 64.153 242.195 63.6871" fill="#2F2E41"/>
<path d="M170.03 408.645C216.974 408.645 255.03 370.589 255.03 323.645C255.03 276.7 216.974 238.645 170.03 238.645C123.086 238.645 85.03 276.7 85.03 323.645C85.03 370.589 123.086 408.645 170.03 408.645Z" fill="#1868B2"/>
<path d="M220.96 316.823H210.393C208.749 307.136 203.676 298.363 196.101 292.106C178.666 277.706 152.86 280.165 138.46 297.6C138.411 297.655 138.363 297.713 138.318 297.771C137.167 299.263 137.444 301.405 138.935 302.555C140.426 303.706 142.568 303.43 143.719 301.938C149.975 294.36 159.443 289.537 170.03 289.537C186.238 289.539 200.209 300.943 203.456 316.823H194.137C193.739 316.823 193.353 316.963 193.047 317.218C192.323 317.821 192.225 318.896 192.827 319.62L206.239 335.719C206.305 335.798 206.377 335.87 206.456 335.936C207.18 336.539 208.255 336.442 208.858 335.719L222.269 319.62C222.524 319.314 222.664 318.928 222.665 318.529C222.665 317.587 221.902 316.823 220.96 316.823H220.96Z" fill="white"/>
<path d="M201.125 344.734C199.633 343.583 197.491 343.859 196.341 345.351C191.379 351.359 184.51 355.487 176.876 357.05C158.415 360.83 140.384 348.928 136.604 330.466H145.922C146.864 330.466 147.628 329.702 147.627 328.76C147.627 328.362 147.487 327.976 147.232 327.669L133.821 311.57C133.218 310.847 132.142 310.75 131.419 311.353C131.34 311.419 131.267 311.491 131.201 311.57L117.79 327.669C117.188 328.393 117.286 329.468 118.009 330.071C118.316 330.326 118.701 330.466 119.1 330.466H129.667C131.311 340.153 136.383 348.926 143.959 355.183C161.393 369.583 187.2 367.124 201.6 349.689C201.649 349.634 201.696 349.576 201.742 349.518C202.892 348.026 202.616 345.884 201.125 344.734V344.734Z" fill="white"/>
<path d="M193.763 237.194C192.734 244.56 188.098 250 183.411 249.344C178.723 248.688 175.758 242.185 176.789 234.817C177.16 231.868 178.233 229.05 179.916 226.6L184.672 195.445L199.245 197.988L193.009 228.432C193.957 231.25 194.215 234.255 193.763 237.194V237.194Z" fill="#FFB6B6"/>
<path d="M206.443 77.6865C206.443 77.6865 191.443 72.6865 189.443 90.6865C187.443 108.686 185.443 130.686 185.443 130.686C185.443 130.686 176.443 151.686 180.443 162.686C184.443 173.686 191.443 166.017 184.443 175.352C177.443 184.686 178.419 215.399 178.419 215.399L200.943 214.265C200.943 214.265 213.443 131.686 213.443 129.686C213.443 127.686 206.443 77.6865 206.443 77.6865V77.6865Z" fill="#E6E6E6"/>
<path d="M303.943 233.85C304.222 241.283 300.613 247.451 295.883 247.628C291.152 247.804 287.093 241.923 286.815 234.488C286.664 231.519 287.225 228.557 288.452 225.85L287.669 194.343L302.462 194.291L301.664 225.356C303.091 227.965 303.872 230.877 303.943 233.85V233.85Z" fill="#FFB6B6"/>
<path d="M280.851 77.3487C280.851 77.3487 295.938 72.6175 297.616 90.6504C299.294 108.683 300.901 141.715 300.901 141.715C300.901 141.715 309.524 162.873 305.328 173.8C301.132 184.726 294.271 176.933 301.103 186.392C307.935 195.85 305.483 222.523 305.483 222.523L282.982 220.987C282.982 220.987 272.887 142.215 272.923 140.215C272.959 138.216 280.851 77.3487 280.851 77.3487V77.3487Z" fill="#E6E6E6"/>
</svg>
