<svg width="28" height="28" viewBox="0 0 28 28" fill="none" xmlns="http://www.w3.org/2000/svg">
<path d="M6.41667 0C4.71486 0 3.08276 0.67604 1.8794 1.8794C0.67604 3.08276 0 4.71486 0 6.41667V8.43267C9.78078e-09 8.8968 0.184374 9.34191 0.512563 9.6701C0.840752 9.99829 1.28587 10.1827 1.75 10.1827C2.21413 10.1827 2.65925 9.99829 2.98744 9.6701C3.31563 9.34191 3.5 8.8968 3.5 8.43267V6.41667C3.5 4.80667 4.80667 3.5 6.41667 3.5H8.43267C8.8968 3.5 9.34191 3.31563 9.6701 2.98744C9.99829 2.65925 10.1827 2.21413 10.1827 1.75C10.1827 1.28587 9.99829 0.840752 9.6701 0.512563C9.34191 0.184374 8.8968 9.78078e-09 8.43267 0H6.41667ZM19.5673 0C19.3375 -4.84295e-09 19.11 0.0452649 18.8976 0.133211C18.6853 0.221156 18.4924 0.35006 18.3299 0.512563C18.1674 0.675065 18.0385 0.867984 17.9505 1.0803C17.8626 1.29262 17.8173 1.52019 17.8173 1.75C17.8173 1.97981 17.8626 2.20738 17.9505 2.4197C18.0385 2.63202 18.1674 2.82493 18.3299 2.98744C18.4924 3.14994 18.6853 3.27884 18.8976 3.36679C19.11 3.45474 19.3375 3.5 19.5673 3.5H21.5833C23.1933 3.5 24.5 4.80667 24.5 6.41667V8.43267C24.5 8.8968 24.6844 9.34191 25.0126 9.6701C25.3408 9.99829 25.7859 10.1827 26.25 10.1827C26.7141 10.1827 27.1592 9.99829 27.4874 9.6701C27.8156 9.34191 28 8.8968 28 8.43267V6.41667C28 4.71486 27.324 3.08276 26.1206 1.8794C24.9172 0.67604 23.2851 0 21.5833 0H19.5673ZM3.5 19.5673C3.5 19.3375 3.45474 19.11 3.36679 18.8976C3.27884 18.6853 3.14994 18.4924 2.98744 18.3299C2.82493 18.1674 2.63202 18.0385 2.4197 17.9505C2.20738 17.8626 1.97981 17.8173 1.75 17.8173C1.52019 17.8173 1.29262 17.8626 1.0803 17.9505C0.867984 18.0385 0.675065 18.1674 0.512563 18.3299C0.35006 18.4924 0.221156 18.6853 0.133211 18.8976C0.0452649 19.11 -4.84295e-09 19.3375 0 19.5673V21.5833C0 23.2851 0.67604 24.9172 1.8794 26.1206C3.08276 27.324 4.71486 28 6.41667 28H8.43267C8.8968 28 9.34191 27.8156 9.6701 27.4874C9.99829 27.1592 10.1827 26.7141 10.1827 26.25C10.1827 25.7859 9.99829 25.3408 9.6701 25.0126C9.34191 24.6844 8.8968 24.5 8.43267 24.5H6.41667C4.80667 24.5 3.5 23.1933 3.5 21.5833V19.5673ZM28 19.5673C28 19.1032 27.8156 18.6581 27.4874 18.3299C27.1592 18.0017 26.7141 17.8173 26.25 17.8173C25.7859 17.8173 25.3408 18.0017 25.0126 18.3299C24.6844 18.6581 24.5 19.1032 24.5 19.5673V21.5833C24.5 23.1933 23.1933 24.5 21.5833 24.5H19.5673C19.1032 24.5 18.6581 24.6844 18.3299 25.0126C18.0017 25.3408 17.8173 25.7859 17.8173 26.25C17.8173 26.7141 18.0017 27.1592 18.3299 27.4874C18.6581 27.8156 19.1032 28 19.5673 28H21.5833C23.2851 28 24.9172 27.324 26.1206 26.1206C27.324 24.9172 28 23.2851 28 21.5833V19.5673ZM5.83333 18.6667V12.565C5.83333 11.9462 6.07917 11.3527 6.51675 10.9151C6.95434 10.4775 7.54783 10.2317 8.16667 10.2317H9.91667L11.27 8.085C11.4809 7.75191 11.7728 7.47769 12.1184 7.28796C12.464 7.09822 12.8521 6.99915 13.2463 7H14.7583C15.152 7.00019 15.5393 7.09999 15.884 7.29011C16.2287 7.48022 16.5198 7.75448 16.73 8.08733L18.0857 10.2317H19.8357C20.4545 10.2317 21.048 10.4775 21.4856 10.9151C21.9232 11.3527 22.169 11.9462 22.169 12.565V18.6667C22.169 19.2855 21.9232 19.879 21.4856 20.3166C21.048 20.7542 20.4545 21 19.8357 21H8.169C7.55016 21 6.95667 20.7542 6.51908 20.3166C6.0815 19.879 5.83567 19.2855 5.83567 18.6667H5.83333ZM14 17.5C14.6188 17.5 15.2123 17.2542 15.6499 16.8166C16.0875 16.379 16.3333 15.7855 16.3333 15.1667C16.3333 14.5478 16.0875 13.9543 15.6499 13.5168C15.2123 13.0792 14.6188 12.8333 14 12.8333C13.3812 12.8333 12.7877 13.0792 12.3501 13.5168C11.9125 13.9543 11.6667 14.5478 11.6667 15.1667C11.6667 15.7855 11.9125 16.379 12.3501 16.8166C12.7877 17.2542 13.3812 17.5 14 17.5Z" fill="#FFFFFF"/>
</svg>
