<svg width="33" height="33" viewBox="0 0 33 33" fill="none" xmlns="http://www.w3.org/2000/svg">
<path d="M22.825 14.96L20.8725 13.0075L15.0425 18.8512L12.1275 15.9225L10.175 17.875L15.0425 22.7425L22.825 14.96Z" fill="#F8F8F8"/>
<path d="M26.125 5.5H6.875C6.14565 5.5 5.44618 5.78973 4.93046 6.30546C4.41473 6.82118 4.125 7.52065 4.125 8.25V24.75C4.125 25.4793 4.41473 26.1788 4.93046 26.6945C5.44618 27.2103 6.14565 27.5 6.875 27.5H26.125C27.6375 27.5 28.875 26.2625 28.875 24.75V8.25C28.875 7.52065 28.5853 6.82118 28.0695 6.30546C27.5538 5.78973 26.8543 5.5 26.125 5.5V5.5ZM26.125 24.75H6.875V11H26.125V24.75Z" fill="#F8F8F8"/>
</svg>
